<?xml version="1.0" encoding="UTF-8"?><svg id="Layer_1" xmlns="http://www.w3.org/2000/svg" xmlns:xlink="http://www.w3.org/1999/xlink" viewBox="0 0 1600 900"><defs><style>.cls-1{fill:#f7ddcb;}.cls-2,.cls-3{fill:#005457;}.cls-4{fill:#003133;}.cls-5{fill:#002324;}.cls-6{fill:#003032;}.cls-7{fill:#006a6d;}.cls-8{fill:#008a8c;}.cls-9{fill:#00a4a7;}.cls-3,.cls-10,.cls-11{stroke:#003133;stroke-miterlimit:10;stroke-width:4px;}.cls-10{stroke-linecap:round;}.cls-10,.cls-11{fill:none;}</style></defs><rect class="cls-6" width="1600" height="900"/><rect class="cls-5" x="-3" y="811" width="1612" height="89"/><polygon class="cls-1" points="635.76 0 830 516 823 576 471.5 911.5 -2.9 900 0 0 635.76 0"/><g><path class="cls-7" d="m1140.99,330.98c-.84,2.1.38,3.17,3.66,3.22l-9.64,2.66c1.28,3.67-1.14,8.51-1.09,12.44.05,4.23,1.05,8.4,1.91,12.52,1.79,8.51,3.59,16.9,6.19,25.21,2.39,7.66,4.74,15.39,8.12,22.69s9.21,13.64,11.64,21.44l8.36-4.86c-2.38-2.13-4.28-4.46-5.48-7.46l-9.14,3.85c4.76,8.02,9.53,16.06,15.06,23.59,5.3,7.22,11.44,13.8,15.81,21.67,3.19,5.75,11.2.7,8.63-5.05-2.19-4.91-.9-10.5.36-15.48s2.64-10.32,3.91-15.5c2.41-9.82,5.33-19.63,12.83-26.82,3.07-2.94.79-8.69-3.54-8.54-5.73.2-13.07-.97-17.02,4.06-3.66,4.66-5.5,11.64-7.34,17.18-2.04,6.16-4.55,12.45-5.95,18.79-1.1,4.97-.85,10.15,3.12,13.78,2.16,1.98,6.44,2.06,7.85-1.01,4.37-9.51,6.68-19.88,9.51-29.92,1.42-5.03,3.38-10.21,4.31-15.36.73-4.07-1.05-7.13-4.98-8.49-3.43-1.18-9.11-2.76-12.14-.01-3.24,2.94-4.37,9.56-5.83,13.46-3.7,9.85-7.48,19.52-8.26,30.11l9.32-2.52c-2.51-4.66-6.06-10.75-2.37-15.7,2.95-3.95,5.17-6.59,6.4-11.53,1.08-4.31,4.19-8.49,4.13-13.03s-2.67-7.66-6.68-9.04c-1.63-.56-3.69.07-4.86,1.29-3.44,3.57-6.03,7.65-8.13,12.12-1.02,2.18-1.94,4.4-2.89,6.61-.61,1.42-1.55,5.21-2.79,5.82l3.85-.5c-1.67-.63,2.89-5.81,3.47-6.61,2.08-2.89,3.9-5.95,5.58-9.08,2.45-4.53,7.39-11.07,2.47-15.65-4.05-3.77-9.58-1.98-12.84,1.74-4.51,5.16-8.15,11.41-12.1,17.01l9.14,1.19c-.96-2.73-1.92-5.45-2.88-8.18-2.13-6.03-11.11-3.67-9.64,2.66.93,4.01,1.86,8.02,2.79,12.03,1.25,5.41,10.23,4.35,9.82-1.33-.15-2.07-.49-4.02-1.01-6.04-.81-3.17-1.35-4.74.73-7.65,2.65-3.72,5.95-7.11,9.97-9.31,1.4-.76,2.67-2.66,2.48-4.32-.7-6-5.85-10.19-12.02-8.24-6.61,2.08-8.05,9.39-13.31,12.98l6.84,1.79c-.75-1.14-1.93-2.72-2.16-4.1-.35-2.1-.71-1.04,1.5-2.58,3.27-2.29,6.41-4.77,9.61-7.15l-6.06-.78c-1.81-1.82.53-4.58-2.91-2.17-.98.69-1.96,1.44-2.82,2.26-1.82,1.73-3.29,3.79-4.55,5.95l9.14,1.19c-.38-2.65,3.53-6.44,4.73-8.65,1.82-3.35,2.41-6.47,1.88-10.24-.36-2.56-3.85-4.3-6.15-3.49-7.94,2.78-13.77,8.75-15.98,16.93l9.14-1.19c-.61-1.34-2.26-5.83-1.89-6.65.76-1.69,5.73-3.71,7.32-4.74,3.59-2.33,3.04-7.89-1.19-9.14-5.07-1.49-10-1.56-15.14-.41l6.15,6.15c2.24-5.86,3.02-11.98,2.29-18.21l-9.32,2.52c2.73,5,5.8,9.73,9.27,14.25,3.86,5.04,12.55.06,8.63-5.05-3.46-4.52-6.54-9.25-9.27-14.25-2.24-4.11-9.91-2.53-9.32,2.52.64,5.45.03,10.44-1.94,15.56-1.45,3.79,2.77,6.91,6.15,6.15s6.46-.58,9.82.41l-1.19-9.14c-4.01,2.6-10.21,5.15-11.71,10.08s.71,10.64,2.7,14.99c1.85,4.04,8.09,2.69,9.14-1.19,1.27-4.68,4.36-8.32,8.99-9.94l-6.15-3.49c.37,2.65-3.55,6.44-4.74,8.65-1.81,3.35-2.41,6.47-1.87,10.24.64,4.43,7.16,4.6,9.14,1.19,3.22-5.54,16.37-10.47,8.72-18.17-1.42-1.43-4.31-2.08-6.06-.78-3.2,2.38-6.41,4.77-9.61,7.15-2,1.48-4.63,2.91-5.95,5.1-2.77,4.63.38,11.27,3.01,15.26,1.41,2.14,4.51,3.38,6.84,1.79,2.45-1.67,4.38-3.6,6.16-5.96.93-1.24,1.71-2.6,2.7-3.79l1.04-1.23c1.29-.54,1.42-1.34.39-2.39l2.48-4.32c-5.61,3.06-9.96,7.85-13.65,13-4.76,6.64-1.51,11.45-.99,18.62l9.82-1.33c-.93-4.01-1.86-8.02-2.79-12.03l-9.64,2.66c.96,2.73,1.92,5.45,2.88,8.18,1.49,4.22,6.61,4.77,9.14,1.19,2.11-2.99,4.22-5.99,6.34-8.98,1.06-1.5,2.09-3.01,3.17-4.49l1.06-1.5c1.54-1.22.93-2-1.84-2.31l.5-3.85c-3.44,6.96-7.18,13.39-11.67,19.72-3.82,5.4-4.8,12.43,1.1,16.83,6.52,4.88,10.58-1.04,13.05-6.68,2.79-6.39,5.16-13.08,10.09-18.19l-4.86,1.29c-1.34-.46-.43-.27-1.24,1.21-.54,1-1.04,2.04-1.49,3.09-.77,1.78-1.24,3.58-1.71,5.46-1.12,4.49-4.08,6.52-6.26,10.39-4.59,8.13-.78,17.1,3.23,24.55,2.51,4.65,8.98,2.13,9.32-2.52.47-6.44,2.41-12.57,4.6-18.61,1.07-2.96,2.19-5.9,3.3-8.84,1.19-3.17,2.13-7.25,4.04-10.06l-4.32,2.48c1.04-.03,4.85.5,5.21.84l-1.46-3.54c.36,2.77-1.76,7.05-2.53,9.77-1.05,3.73-2.1,7.45-3.16,11.18-2.07,7.33-3.73,15-6.92,21.94l7.85-1.01c-2.28-2.09.48-7.57,1.25-9.96,1.29-4.01,2.56-8.04,3.88-12.04s2.71-8.2,4.57-12.09c1.16-2.43.69-2.54,3.24-2.41,2.36.12,4.82-.17,7.18-.25l-3.54-8.54c-9.22,8.83-12.91,20.93-15.83,33-2.92,12.1-8.24,24.8-2.84,36.91l8.63-5.05c-4.37-7.88-10.5-14.44-15.81-21.67s-10.3-15.57-15.06-23.59c-2.78-4.68-11.3-1.57-9.14,3.85,1.84,4.62,4.32,8.54,8.05,11.87,3.53,3.15,9.92.17,8.36-4.86-2.4-7.7-7.43-13.73-11.14-20.77-3.87-7.33-6.16-15.48-8.62-23.36-2.59-8.31-4.4-16.71-6.19-25.21-.88-4.21-2.03-8.5-1.4-12.83s2.09-7.81.58-12.13c-2.1-6.01-11.34-3.63-9.64,2.66,1.02,3.78,4.52,6.08,8.45,5.41,4.35-.74,6.4-4.65,7.17-8.63,1.23-6.29-8.41-8.98-9.64-2.66h0Z"/><path class="cls-7" d="m1167.73,427.4c6.43,0,6.45-10,0-10s-6.45,10,0,10h0Z"/></g><path class="cls-2" d="m1536.35,775.28c-2.23,3.52-4.45,7.04-6.68,10.56l9.32,2.52c.84-7.28.02-15.64-7.59-19-2.42-1.07-5.43-.79-6.84,1.79-1.69,3.08-3.03,6.25-4.05,9.62l9.64,2.66c1.16-6.69,4.62-12.42,4.5-19.4-.13-7.54-1.77-15.25-2.84-22.71-3.05,1.28-6.09,2.57-9.14,3.85,2.42,3.77,5.73,6.6,10.08,7.9s11.82-1.73,14.09,2.73v-5.05c-1.93,4.16-5.84,7.97-8.64,11.6h8.63c-2.41-4.08-5.28-7.78-8.66-11.1v7.07l-1.48-2.39-.92,1.39c-.71.69-1.25,2-1.73,2.86-1.18,2.07-2.19,4.22-3.08,6.44-1.73,4.29-2.61,8.72-2.65,13.35-.05,5.07,6.75,6.65,9.32,2.52,4.64-7.47,10.88-17.89,5.7-26.59-2.03-3.41-6.43-6.61-10.44-4.57s-4.43,7.64-4.72,11.47c-.57,7.52,2.46,21.05,12.66,19.56,4.37-.64,7.08-4.46,8.11-8.48,1.46-5.71,2.01-10.08,6.37-14.51l-8.54-3.54c1.14,13.82-1.15,27.37-3.23,40.99-1.75,11.4-1.56,24.55-8.64,34.2-3.02,4.11,2.81,9.39,6.84,6.84,1.18-.74,2.35-1.48,3.53-2.23l-7.52-4.32-.07,1.5,9.64,2.66c.3-1.28.59-2.57.89-3.85l-9.64-2.66c-.11.75-.84,7.66-2.76,6.97l3.49,3.49-.19-1.14-.5,3.85c2.37-4.65,6.65-8.6,10.44-12.13l-7.07-7.07c-2.78,3.17-5.56,6.35-8.34,9.52-2.46,2.8-4.12,3.89-7.95,4.57-8.09,1.43-16.44.07-24.53-.68-5.6-.52-6.82,8.66-1.33,9.82,10.64,2.24,20.83-.8,31.5-.68,5.3.06,6.35-6.59,2.52-9.32-4.24-3.03-8.78-2.4-13.66-1.76-6.21.82-12.46-1.01-18.74-.77l3.54,8.54c2.88-3.69,5.34-7.84,8.62-11.2s7.57-3.88,11.12-6.59c5.04-3.85.09-12.54-5.05-8.63-1.92,1.46-3.71,2.46-6.17,2.67l2.52,9.32c5.52-3.97,12.53-7.39,13.36-14.85.33-2.96-3.48-23.07-1.33-23.77l-6.33-4.82c.39,4.28.78,8.56,1.17,12.84.49,5.41,8.16,7.03,9.82,1.33.56-1.94,1-3.86,1.33-5.85l-9.82-1.33c1.55,13.58.4,29.61-11.9,38.11-3.87,2.67-2.75,9.43,2.52,9.32,4.76-.1,9.43-.65,14.1-1.6-1.28-3.05-2.57-6.09-3.85-9.14-4.41,2.21-9.23,2.5-14.07,2.77l1.33,9.82c5.95-1.4,12.32-.92,17.94-3.65s8.57-7.9,10.79-13.41c2.67-6.62,3.37-13.45,4-20.49.7-7.77,2.78-15.03,5.17-22.43,1.83-5.67-6.07-8.31-9.14-3.85-5.49,7.97-9.62,16.66-12.48,25.9l9.82,1.33c-.26-2.46-.28-4.8-.06-7.27h-10c-.16,9.16-1.88,17.62-4.12,26.44-1.51,5.94-3.39,15.07,2.93,18.88,5.52,3.33,10.56-5.31,5.05-8.63.78,1.18,1,1.06.66-.37-.14-1.18-.09-2.36.15-3.54.19-1.24.54-2.47.85-3.68.86-3.35,1.82-6.65,2.5-10.05,1.24-6.28,1.87-12.66,1.98-19.06s-9.45-6.32-10,0c-.22,2.46-.2,4.81.06,7.27.57,5.42,8.06,7.01,9.82,1.33,2.62-8.47,6.45-16.22,11.47-23.51l-9.14-3.85c-1.92,5.97-3.81,11.95-4.75,18.17s-.81,12.27-2.29,18.25c-1.17,4.74-3.03,11.26-7.75,13.61s-10.98,1.75-16.12,2.96c-5.42,1.28-4.35,10.14,1.33,9.82,6.7-.37,13.05-1.08,19.12-4.13,5.31-2.67,1.44-10.21-3.85-9.14-3.8.77-7.56,1.16-11.44,1.24l2.52,9.32c15.36-10.61,18.85-29.2,16.85-46.74-.58-5.05-8.81-7.4-9.82-1.33-.33,1.99-.77,3.92-1.33,5.85l9.82,1.33c-.39-4.28-.78-8.56-1.17-12.84-.28-3.06-2.99-5.9-6.33-4.82-8.31,2.69-8.49,10.35-7.39,17.7.6,4.02,1.54,8.47,1.45,12.56-.11,4.91-4.8,6.73-8.48,9.38s-2.92,9.79,2.52,9.32c4.2-.37,7.83-1.47,11.22-4.04l-5.05-8.63c-3.8,2.91-8.42,3.78-12.09,7.13-3.86,3.53-6.48,8.14-9.67,12.23-2.44,3.13-1.23,8.72,3.54,8.54,5.3-.21,10.45,1.12,15.7,1.05,3.71-.05,8.41-2.21,11.65.11l2.52-9.32c-9.61-.1-19.3,3.05-28.84,1.04l-1.33,9.82c9.7.9,19.38,2.19,29-.05,8.55-1.99,13.4-10.02,18.89-16.29,4.22-4.82-2.32-11.5-7.07-7.07-4.91,4.58-13.54,11.76-12.32,19.14.29,1.76,1.95,2.93,3.49,3.49,8.99,3.26,14.04-6.75,15.06-13.95.88-6.17-8.15-9.1-9.64-2.66-.3,1.28-.59,2.57-.89,3.85-1.45,6.27,7.75,8.83,9.64,2.66.49-1.59.63-2.5.43-4.16-.43-3.52-3.99-6.55-7.52-4.32-1.18.74-2.35,1.48-3.53,2.23,2.28,2.28,4.56,4.56,6.84,6.84,7.7-10.49,7.76-24.22,9.65-36.59,2.21-14.47,4.8-28.96,3.59-43.64-.34-4.15-5.31-6.81-8.54-3.54-4.06,4.12-7.08,9.15-8.26,14.85-.22,1.08-.06,3.13-.68,4.07.37.9.36.94,0,.11-.37-.7-.61-1.45-.73-2.24-.44-1.77-.55-3.63-.46-5.44.03-.67,1.11-4.58-.16-3.69l-3.85.5c4.82,1.14-3.88,15.02-5.09,16.97l9.32,2.52c.05-4.74,1.38-9.09,3.57-13.27,1.96-3.74,5.59-7.38,5.47-11.82-.1-3.51-2.45-6.29-5.84-7.17-4.06-1.04-7.38,1.11-10.4,3.55-2.09,1.69-1.77,5.33,0,7.07,2.81,2.77,5.09,5.68,7.1,9.07s6.42,2.87,8.63,0c2.76-3.58,6.84-7.46,8.64-11.6,1.48-3.41-.24-6.18-2.69-8.6-2.74-2.71-5.91-4.03-9.78-3.98-4.68.07-8.68,1.59-11.7-3.1-3.24-5.04-9.91-1.58-9.14,3.85.94,6.6,2.37,13.37,2.48,20.05.1,5.91-3.15,11.02-4.14,16.74-1.08,6.25,7.73,8.92,9.64,2.66.78-2.56,1.76-4.88,3.04-7.23l-6.84,1.79c4.09,1.81,3.06,6.7,2.63,10.36-.61,5.25,6.9,6.34,9.32,2.52l6.68-10.56c3.45-5.46-5.2-10.48-8.63-5.05h0Z"/><path class="cls-2" d="m1195.97,845.51c0-3.54,1.01-8.84-1.72-11.68-2.35-2.44-6.26-2.04-9.33-2.22l3.54,8.54c1.46-1.31,4.96-5.78,6.83-6.04s6.16,3.03,8.01,3.83c5.5,2.36,11.23,2.58,17.15,2.41s11.14-1.2,15.81-4.67c4.28-3.19,7.34-7.6,11-11.43l-8.36-2.21c1.56,5.87.95,12.29.96,18.32,0,1.31,0,2.61,0,3.92,0,.52.25,4.61,1.29,3-.88,1.36-7.09,2.3-8.69,2.59l3.85.5-1.01-.43,2.3,2.99c-.6-1.89,4.86-8.3,5.83-10.03,2.18-3.92,3.55-7.94,3.37-12.46-.25-6.41-9.97-6.47-10,0s-1.35,12.38-4.17,18.11h8.63c-2.3-3.72-3.53-7.41-3.73-11.79-.13-2.89-3.15-6.13-6.33-4.82-5.82,2.39-11.9,4.27-18.21,4.71-2.95.21-5.93.17-8.85-.27-2.14-.32-7.57-.97-8.64-3.17l-4.32,7.52c7.26.27,13.98,2.71,21.37,2.15,3.62-.27,7.25-.89,10.79-1.69s7.47-2.74,10.99-2.95l-3.54-1.46c.94.97-2.74,5.69-3.52,6.21-2.03,1.36-5.07,1.21-7.45,1.37-5.68.4-11.38.28-17.07-.01-11.43-.59-22.81-1.86-34.27-1.57-2.77.07-4.91,2.23-5,5-.41,12.16,15.46,12.96,24.12,13.4,12.81.65,26.65.7,39.31-1.62,10.11-1.85,6.72-14.88-1-17.95-4.95-1.97-11.03-.8-16.2-.71-3.1.06-6.2.07-9.29.05-1.3-.01-6.82.55-7.7-.16l-2.21,8.36c12.93-2.01,25.98-2.78,39.05-2.51l-1.33-9.82c-6.36.94-12.95.91-19.29-.23s-11.72-3.39-17.72-4.54c-5.36-1.02-10.93-1.29-16.16.52-2.71.93-5.24,2.2-8.02,2.95-2.23.61-4.48,1.13-6.41,2.46-7.9,5.43-3.84,18.86,4.46,21.8,2.04.72,3.29-.12,5.17-.6-2.25.58,1.05.48,1.64.48,1.03.01,2.08-.12,3.06-.43,4.8-1.51,8.45-7.39,12.58-10.29,2.43-1.71,3.64-5.59,1.01-7.85-4.11-3.54-8.59-4.74-13.92-3.64-6.3,1.3-3.63,10.94,2.66,9.64,1.62-.33,2.93-.02,4.19,1.07l1.01-7.85c-1.7,1.2-3.38,2.43-4.98,3.77-1.78,1.48-3.45,4-5.35,5.18-.86.54-1.57-.05-3.55.12-1.55.13-2.69.82-4.06,1.47l3.85-.5c1.29.42-1.22-1.59-1.39-1.93-.71-1.38-.84-1.86.6-2.73,2.03-1.22,5.36-1.57,7.64-2.5,6.31-2.58,11.86-2.09,18.34-.3,12.63,3.48,24.18,5.5,37.31,3.56,5.73-.85,4.11-9.71-1.33-9.82-13.99-.3-27.89.72-41.71,2.86-3.57.55-4.99,6.11-2.21,8.36,5.33,4.3,12.93,3.13,19.41,3.09,3.72-.02,7.43-.11,11.15-.24,1.36-.05,3.17-.4,4.54-.11.94-.1,1.67.23,2.19,1,.2,1.67.47,1.67.79,0l2.99-2.3c-5.12,1.91-53.46,4.76-53.25-1.53l-5,5c12.73-.33,25.36,1.3,38.07,1.73,10.35.35,24.13,1.81,30.67-7.84,2.66-3.92,4.35-8.75,2.84-13.41-1.8-5.53-6.25-5.34-10.98-3.95-6.32,1.84-12.76,3.59-19.38,3.7s-12.25-2.05-18.52-2.28c-4.04-.15-5.89,4.29-4.32,7.52,3.37,6.94,14.08,8.17,20.91,8.46,8.95.39,17.85-1.76,26.08-5.14l-6.33-4.82c.27,6.09,1.89,11.64,5.09,16.84,1.85,3,6.91,3.5,8.63,0,3.61-7.34,5.5-14.96,5.54-23.16h-10c.3,7.89-7.37,13.43-8.97,20.95-1.52,7.14,4.79,8.94,10.38,7.31,3.13-.91,7.12-1.63,9.5-3.98,2.56-2.54,2.17-6.12,2.16-9.46-.02-8.51.87-17.57-1.33-25.87-.95-3.59-5.76-4.92-8.36-2.21-3.47,3.63-6.42,8.41-10.73,11.09-4.83,2.99-13.57,2.88-18.99,1.62s-9.83-5.91-15.26-6.26-10.26,6.27-13.81,9.46c-3.42,3.08-.52,8.3,3.54,8.54.27.02,2.97-.12,3.27.07l-2.3-2.99c.47,2.09.08,4.67.08,6.81-.02,6.44,9.98,6.44,10,0h0Z"/><polygon class="cls-2" points="1257.67 587.22 1262.27 599.61 1259.97 607.99 1249.05 640.98 1244.74 656.5 1240.43 683.22 1239.57 701.31 1238.7 728.9 1238.7 752.21 1239.57 765.96 1241.29 777.16 1243.87 785.78 1246.46 790.95 1248.18 794.4 1248.18 798.71 1245.6 803.02 1236.98 808.19 1228.32 810.78 1215.99 810.78 1202.15 810.78 1186.13 812.5 1178.04 811.68 1175.71 804.96 1176.13 796.94 1178.37 769.4 1176.65 758.2 1172.34 724.59 1169.48 709.03 1169.48 679.82 1171.48 667.7 1175.99 648.81 1180.96 637.53 1187.78 624.61 1191.42 618.93 1206.3 614.16 1219.74 609.09 1234.11 599.85 1247.32 591.85 1256.24 585.12 1257.67 587.22"/><polygon class="cls-7" points="1260.25 582.37 1276.63 566 1288.69 550.48 1303.35 530.66 1308.52 521.18 1310.24 523.76 1311.69 534.97 1318 555.65 1331.55 582.37 1343.86 598.75 1359.37 620.3 1379.19 646.15 1401.6 665.98 1436.08 684.94 1461.94 692.7 1484.34 693.56 1508.77 693.56 1517.1 694.42 1524.85 702.18 1525.72 709.07 1523.99 740.1 1523.99 757.34 1522.27 775.44 1511.93 799.57 1499.86 819.4 1488.65 826.29 1476.59 828.88 1462.8 827.15 1430.05 813.36 1398.15 792.68 1374.88 771.13 1355.92 750.44 1327.48 715.97 1306.79 684.94 1290.42 656.5 1279.21 634.09 1266.28 603.92 1259.39 585.82 1258.53 583.23 1260.25 582.37"/><path class="cls-9" d="m1125.76,304.25c3.26-.89,6.54-1.69,9.85-2.38s5.11-6.04,2.21-8.36c-1.86-1.49-3.52-2.52-5.87-3.02l-1.33,9.82c.7-.06,4.27,16.51,4.81,18.09,1.77,5.15,9.88,4.55,9.82-1.33-.02-2.37.08-4.69.31-7.04l-9.32,2.52c1.32,2.11,2.72,6.98,1.42,9.39-1.11,2.05-6.28,4.11-8.28,5.26l6.84,1.79c-1.78-3.41-4.11-6.34-7.07-8.81l-2.21,8.36c7.61-2.01,16.11-6.41,11.43-15.56-.91-1.78-2.14-3.38-2.99-5.21-.97-2.09-1.33-4.39-2.31-6.46-1.83-3.88-5.09-5.2-9.14-4.6-3.24.49-4.49,4.84-2.99,7.34s4.19,3.45,5.86,5.82c.8,1.13,1.3,2.35,1.52,3.72.16.65.2,1.31.13,1.98-.41,1.44-.37,1.7.12.78l3.85-.5-1.05-.17v9.64l1.06-1.15c-.4,6.43,9.6,6.4,10,0,.5-7.99-7.49-9.69-13.72-8.49-4.71.9-4.84,8.84,0,9.64,7.38,1.22,10.15-5.29,9.65-11.74-.24-3.1-1.24-6.11-2.91-8.74-1.42-2.23-4.99-4.34-5.88-5.83l-2.99,7.34c-3.29.49-1.97,1.32-1.06,3.66.69,1.77,1.51,3.49,2.47,5.13.45.78,1.42,3.14,1.78,2.34.3-1.14-.38-1.01-2.05.4-1.13.4-2.28.74-3.44,1.01-3.4.9-5.15,5.9-2.21,8.36,2.36,1.97,4.08,4.05,5.51,6.78,1.26,2.4,4.59,3.09,6.84,1.79,4.79-2.76,11.27-5.68,13.01-11.4,1.56-5.14.24-12.46-2.56-16.93s-8.84-2.28-9.32,2.52c-.23,2.35-.34,4.67-.31,7.04l9.82-1.33c-1.98-5.77-2.41-11.77-4.11-17.55-1.39-4.71-5.24-8.33-10.35-7.89s-7.23,8.57-1.33,9.82l1.46.45,2.21-8.36c-3.31.69-6.59,1.49-9.85,2.38-6.2,1.7-3.57,11.35,2.66,9.64h0Z"/><polygon class="cls-8" points="988.75 551.34 999.1 553.07 1025.81 558.24 1051.67 560.83 1078.39 559.96 1100.49 556.08 1126.66 548.76 1162.86 534.97 1198.36 516.01 1195.61 512.56 1194.75 499.63 1194.75 473.77 1196.47 444.47 1199.06 431.54 1204.23 417.75 1208.54 409.99 1213.05 403.43 1211.98 412.58 1212.85 419.47 1216.29 423.45 1224.91 424.65 1235.26 422.06 1241.29 417.75 1247.75 409.58 1249.05 402.24 1257.67 395.34 1274.9 413.44 1292.03 423.82 1305.93 433.26 1317.14 443.61 1321.45 451.36 1323.17 459.12 1323.17 473.77 1319.72 491.87 1313.69 507.39 1295.59 537.55 1275.77 563.41 1259.39 579.79 1238.7 596.16 1203.37 615.13 1168.27 621.33 1130.1 624.61 1099.08 622.88 1062.01 617.71 1037.02 610.82 1003.4 597.89 986.17 589.27 976.69 584.1 979.79 575.01 985.31 554.79 986.17 551.34 988.75 551.34"/><g><path class="cls-9" d="m923.42,537.83c.58-3.52,1.67-3.74,5.03-3.18,2.92.49,5.82,1.13,8.68,1.87,5.46,1.41,10.75,3.34,16.06,5.23,5.07,1.8,9.34,3.24,13.06,7.24,1.5,1.61,2.96,3.22,4.71,4.57,1.46,1.14,3.79,1.72,5.08,2.88l-1.46-3.54c.36,3.16-1.89,6.57-2.7,9.58-.65,2.41-.89,9.26-2.34,10.67-1.3,1.25-6.74,1.98-8.61,2.68-2.86,1.06-5.52,2.37-8.11,3.97-5.73,3.55-11.12,8.36-18.32,6.86s-13.8-4.39-21.01-5.64c-3.4-.59-6.82-.99-10.25-1.34-1.24-.13-3.5-.05-4.61-.73-1.95-1.21-1.76-3.68-1.91-5.59-.52-6.62-.75-13.61,1.53-19.95.39-1.1,1.1-3.68,2.16-4.47,1.63-1.22,3.18-.37,4.92-.1,3.13.47,6.22.53,9.33-.18s6.4-2.1,8.84-4.19,2.48-4.54,4.31-6.95l-2.99,2.3,1.22-.3-6.15-6.15c-3.88,11.52-15.47,9.59-24.77,13.25-3.61,1.42-5.43,7.04-1.19,9.14,9.81,4.87,20.56,2.91,29.61-2.75,7.27-4.54,19.77-13.33,11.02-22.43-2.2-2.29-6.3-1.77-7.85,1.01-3.4,6.1-6.85,12.04-12.1,16.76-2.35,2.11-4.97,3.9-7.74,5.41-1.16.63-2.35,1.21-3.56,1.71-.74.32-1.49.61-2.26.86-1.83.06-2.02.8-.56,2.22l-4.82,6.33c25.94-2.15,51.9-.26,77.76,2.13,5.16.48,6.5-6.92,2.52-9.32-7.96-4.79-16.98-6.05-26.09-6.72-10.53-.78-20.97-1.44-31.2-4.27l-1.33,9.82c9.05.69,18.11,1.38,27.19,1.46,4.53.04,9.06-.07,13.57-.4,2.07-.15,11.09-2.27,11.55.35,2.45-1.88,4.9-3.76,7.34-5.65-4.49-2.18-9.21-4.35-13.13-7.5-3.63-2.92-6.45-6.27-11.17-7.43-9.77-2.4-20.99.65-29.95,4.47-4.23,1.81-2.49,7.97,1.19,9.14,12.67,4.01,25.85,4.51,38.82,1.71,3.78-.81,4.7-5.79,2.21-8.36-8.11-8.36-19.67-8.14-29.87-12.21-4.29-1.71-7.56,3.86-5.65,7.34,4.26,7.77,8.8,15.82,15.76,21.51s16.59,8.5,25.27,11.66l2.66-9.64c-8.74-1.48-17.52-1.03-26.31-1.87-7.84-.75-15.37-3.19-23.29-3.39-8.53-.22-17.07,1.37-25.4,3.05-2.87.58-5.89,1.06-7.61,3.7-1.58,2.42-1.24,6.12-.87,8.81,2.2,16.17,23.39,12.87,35.14,13.6,3.92.24,7.82.59,11.69,1.3,3.5.64,6.86,1.57,10.4.65,7.93-2.07,15.83-6.76,23.33-10.05,3.59-1.57,2.91-6.87,0-8.63-6.91-4.19-14.67-5.69-22.62-6.37-8.99-.77-19.49-1.52-28.41.29-2.78.56-5.26,1.87-6.29,4.65-1.36,3.68,1.3,6.67,3.75,9.15s5.23,4.31,8.07,6.07c1.71,1.06,3.47,2.03,5.19,3.08.86.52,1.71,1.05,2.55,1.6,1.29,1.16,1.57,1.19.84.1l1.29-4.86-.71-.44c1.61,2.11,3.21,4.22,4.82,6.33.33-1.36,8.09-4.02,9.8-4.75,3.73-1.59,7.31-3.23,10.55-5.7,4.36-3.33,2.01-10.41-3.85-9.14-9.45,2.05-19.01-1.74-28.53.76-4.44,1.17-5.08,8.93,0,9.64,5.88.82,11.77,1.65,17.65,2.47l1.33-9.82c-9.32-1-18.92-2.45-27.87-5.34-7.31-2.36-12.61-7.35-20.27-2.94-6.27,3.61-6.23,9.81-.22,13.8s13.82,5.06,21,3.31c6.25-1.52,3.6-11.17-2.66-9.64-2.57.63-5.1.77-7.68.18-1.14-.26-5.43-1.33-5.65-2.57l-.5,3.85c-1.17.98-.91.88.77-.3,1.26-.77,2.41-.72,3.43.15,1.44.38,2.91,1.42,4.29,2,3.46,1.44,7.02,2.52,10.66,3.39,8.12,1.95,16.4,3.21,24.7,4.1,5.55.6,6.91-9.04,1.33-9.82l-17.65-2.47v9.64c9.32-2.45,19.03,1.3,28.53-.76l-3.85-9.14c-4.35,3.33-9.39,5.09-14.33,7.33-4.12,1.87-9.46,4.32-10.61,9.1-.75,3.13,1.49,6.35,4.82,6.33s8.05-.8,9.07-4.69c.76-2.91-.83-5.28-3-7.01-5.84-4.68-13.8-6.93-18.18-13.3l.5,3.85c-2.09,1.58-2.02,2.07.21,1.48.98-.08,1.96-.14,2.93-.19,1.96-.11,3.92-.19,5.88-.23,4.25-.09,8.5-.02,12.74.23,7.4.43,14.71,1.34,21.15,5.25v-8.63c-5.89,2.58-11.74,5.27-17.67,7.74-5.52,2.3-11.28.03-17.1-.56-6.23-.63-12.5-.72-18.75-1.02-2.73-.13-5.65-.06-8.33-.69-3.58-.84-3.15-2.38-3.9-5.36v-1.52c-.48.76-.98,1.51-1.47,2.27.08.13,5.44-1.1,5.73-1.16,3.39-.65,6.79-1.28,10.22-1.65,6.16-.68,12.3-.66,18.4.5s11.5,2.28,17.43,2.62c6.93.4,13.9.15,20.76,1.31,6.32,1.07,8.76-7.42,2.66-9.64-7.45-2.72-15.94-4.82-22.06-10.11-5.74-4.96-9.4-11.92-13-18.47-1.88,2.45-3.76,4.9-5.65,7.34,8.29,3.31,18.92,2.91,25.46,9.64l2.21-8.36c-11.26,2.42-22.54,1.76-33.51-1.71.4,3.05.8,6.09,1.19,9.14,6.75-2.88,18.83-6.56,25.43-1.84,2.98,2.13,5.42,4.87,8.56,6.88s6.71,3.74,10.16,5.42c4.1,1.99,8.11-1.27,7.34-5.65-2.08-11.82-16.92-7.84-25.06-7.45-12.31.58-24.62-.36-36.89-1.29-5.72-.43-6.65,8.35-1.33,9.82,9.38,2.6,19.04,3.6,28.72,4.28,9.02.64,18.22.93,26.18,5.71l2.52-9.32c-25.86-2.39-51.82-4.27-77.76-2.13-3.03.25-5.94,3.02-4.82,6.33,3.65,10.74,17.31,3.69,23.73-.37,9.43-5.98,15.43-14.59,20.78-24.2l-7.85,1.01c.21.22-11.15,8.06-12.63,8.77-4.95,2.38-10.82,3.21-15.88.7-.4,3.05-.8,6.09-1.19,9.14,6.73-2.65,14.22-2.12,20.57-5.91,5.47-3.27,9.17-8.35,11.18-14.33,1.26-3.75-2.64-7.02-6.15-6.15-2.14.53-3.4,1.28-4.62,3.14-1.34,2.04-1,3.52-3.23,4.79-5.22,2.97-10.33-.22-15.71.58-9.42,1.4-12.28,13.8-13.1,21.68s-1.95,21.53,5.39,26.65c3.82,2.66,8.47,2.69,12.93,3.15,5.82.61,11.58,1.83,17.18,3.5,4.78,1.42,9.5,3.48,14.56,3.67s9.72-1.58,14.02-4.06c3.78-2.19,7.22-4.99,11.21-6.82,4.33-1.99,9.49-2.46,13.59-4.94,3.75-2.27,4.01-6.79,4.78-10.68.97-4.94,3.59-9.85,4.21-14.76s-1.86-6.93-5.92-9.04c-3.67-1.91-5.94-5.91-9.16-8.44-4.38-3.44-10.02-4.88-15.19-6.71-5.36-1.9-10.7-3.78-16.24-5.11-4.55-1.1-10.87-3.2-15.57-2.02-4.79,1.21-7.96,6.14-8.73,10.74-1.04,6.3,8.59,9,9.64,2.66h0Z"/><path class="cls-9" d="m914.81,545.61l.72.18c.66.21,1.33.24,1.99.09.67-.03,1.29-.23,1.86-.59.58-.31,1.05-.74,1.4-1.29.44-.48.74-1.05.89-1.7l.18-1.33c0-.9-.23-1.74-.68-2.52l-.78-1.01c-.62-.62-1.36-1.05-2.21-1.29l-.72-.18c-.66-.21-1.33-.24-1.99-.09-.67.03-1.29.23-1.86.59-.58.31-1.05.74-1.4,1.29-.44.48-.74,1.05-.89,1.7l-.18,1.33c0,.9.23,1.74.68,2.52l.78,1.01c.62.62,1.36,1.05,2.21,1.29h0Z"/></g><path class="cls-9" d="m1202.19,820.5c4.81.22,9.55,1.53,14.37,1.49,2.13-.02,4.26-.31,6.32-.86,1.16-.31,5.26-2.48,6.32-1.92l-2.48-4.32c.43,5.42-2.24,6.54-7.4,7.2-2.12.27-4.28.2-6.37-.23-.69-.14-5.73-1.5-5.76-1.91l-6.33,4.82c4.61.75,8.86,2.92,13.54,3.3s8.52-1.27,12.54-3.22c5.79-2.81.72-11.43-5.05-8.63-3.29,1.59-5.79,2.32-9.42,1.36-3.02-.8-5.85-1.94-8.96-2.45-2.92-.48-6.62,1.27-6.33,4.82.68,8.2,9.47,11.38,16.69,12.12,6.3.64,16.67-.61,20.48-6.52s3.79-16.53-5.36-16.3c-4.63.12-8.59,2.77-13.27,2.73s-9-1.29-13.54-1.49c-6.43-.29-6.42,9.71,0,10h0Z"/><g><path class="cls-9" d="m1227.65,413.72l-.91-.13c-.66-.21-1.33-.24-1.99-.09-.67.03-1.29.23-1.86.59-.58.31-1.05.74-1.4,1.29-.44.48-.74,1.05-.89,1.7l-.18,1.33c0,.9.23,1.74.68,2.52l.78,1.01c.62.62,1.36,1.05,2.21,1.29l.91.13c.66.21,1.33.24,1.99.09.67-.03,1.29-.23,1.86-.59.58-.31,1.05-.74,1.4-1.29.44-.48.74-1.05.89-1.7l.18-1.33c0-.9-.23-1.74-.68-2.52l-.78-1.01c-.62-.62-1.36-1.05-2.21-1.29h0Z"/><path class="cls-9" d="m1234.01,352.87c-4.06.58-8.76.92-12.57,2.47-3.26,1.32-3.74,4.01-5.07,6.94-3.11,6.83-2.49,14.22-3.16,21.57-.44,4.8,1.12,6.95,2.45,11.31s-.82,7.13-2.07,11.13c-2.17,6.97.6,15.53,8.62,16.73v-9.64l-1.33-.23-2.52,9.32c4.34.56,8.2-.47,12.45-.45l-3.54-1.46.34.41,2.21-8.36.12.02v9.64c5.38-1.28,10.76-3,14.25-7.56,2.55-3.34,4.55-9.42,1.19-12.95-4.05-4.25-9.79.19-14.19,1.16-5.72,1.26-10.1,2.01-13.74,7.01s3.82,9.57,7.85,6.06c1.21-1.06,2.26-.67,3.58-.13,4.63,1.87,8.51-5.21,4.86-8.36-1.4-1.21-2.71-2.45-3.82-3.93-.73-.98-1.73-4.22-2.22-2.54l-3.49,3.49,1.15-.23-3.85-.5c2.46,1.2,3.86,3.28,6.78,3.63s5.47-.92,8.06-1.85c5.71-2.04,10.76-4.06,15.85-7.38,4.7-3.06,8.45-5.47,10.68-10.81,2.54-6.1,4.35-12.48,5.75-18.93,1.38-6.34-7.48-8.69-9.64-2.66-.88,2.45-1.85,4.84-3.04,7.16-.6,1.17-2.42,5.82-3.67,6.27-3.62,1.3-6.31-3.07-6.87-5.9-1.22-6.16-3.52-14.64-10.38-16.73-6.24-1.89-13.7,2.66-15.84,8.69-.99,2.79-.37,5.81,2.14,7.53,3.24,2.23,7.88.71,11.45.28l-4.82-6.33c-.8,2.16-1.57,5.46-3.18,7.14-1.19,1.24-3.36,1.42-4.69,2.83-2.93,3.11-2.46,7.27-2.69,11.19-.39,6.58,9.19,6.18,10,0,.64-4.83,1.27-9.66,1.91-14.49h-10c.18,5.81-.05,11.59-.9,17.34-.31,2.09.17,4.6,2.3,5.65,1.46.72,2.63,1.41,3.61,2.75,2.66,3.65,7.49,2.93,9.14-1.19s3.22-8.01,4.14-12.22c.83-3.78.98-7.64,2.18-11.35,1.49-4.63-5.09-8.66-8.36-4.86-4.28,4.97-7.23,10.48-8.67,16.89-.98,4.38,3.41,7.63,7.34,5.65,4.24-2.13,8.18-4.61,11.93-7.51l-6.84-1.79c.4.58-3.88,10.2-4.36,11.27-1.85,4.18,2.21,9.79,6.84,6.84,4.68-2.98,9.37-5.97,14.05-8.95,3.81-2.42,2.74-9.92-2.52-9.32-2.81.32-5.5.78-8.22,1.57-6.17,1.8-3.54,11.45,2.66,9.64,1.86-.54,3.63-.99,5.56-1.21-.84-3.11-1.68-6.21-2.52-9.32-4.68,2.98-9.37,5.97-14.05,8.95l6.84,6.84c2.37-5.34,8.24-15.81,4.36-21.37-1.39-1.99-4.56-3.55-6.84-1.79-3.76,2.9-7.7,5.37-11.93,7.51l7.34,5.65c1.06-4.7,2.94-8.81,6.1-12.48l-8.36-4.86c-1.2,3.71-1.33,7.56-2.18,11.35-.94,4.21-2.55,8.22-4.14,12.22l9.14-1.19c-2.01-2.76-4.11-4.82-7.2-6.34l2.3,5.65c.98-6.66,1.46-13.27,1.26-20s-9.18-6.2-10,0c-.64,4.83-1.27,9.66-1.91,14.49h10c.04-.67.17-4.47-.15-4.06.85-1.1,3.6-1.56,4.77-2.87,2.74-3.08,4.17-7.76,5.58-11.57,1.04-2.81-1.73-6.71-4.82-6.33-1.46.18-2.92.36-4.38.53-.71.09-3.28-.13-2.03.55l2.3,2.99c.37,1.87,1.3-.67,2.35-.8,1.63-.2,2.22,1.39,2.83,2.58,1.38,2.73,1.47,5.5,2.19,8.4,1.33,5.38,4.88,8.71,9.94,10.69,5.41,2.12,10.19,2.27,14.05-2.56s6.5-11.16,8.61-17.04l-9.64-2.66c-1.11,5.1-2.49,10.13-4.26,15.05-.84,2.33-1.45,4.43-3.44,6.02s-4.2,2.77-6.26,4.09c-3.81,2.44-7.95,3.77-12.19,5.29-3.29,1.18-2.57,1.07-5.12-.52-2.08-1.3-3.85-1.29-6.15-.83-1.69.34-3.03,1.9-3.49,3.49-1.72,5.92,4.55,12.69,8.62,16.2,1.62-2.79,3.24-5.57,4.86-8.36-4.79-1.94-9.54-.59-13.31,2.71l7.85,6.06c1.48-2.04,5.53-1.93,7.76-2.41,1.49-.32,7.76-1.53,5.47-2.95l-2.3-2.99c1.16,3.88-7.53,5.48-9.74,6-4.55,1.08-4.98,8.89,0,9.64,1.88.28,3.32.3,5.19-.02,4.06-.69,4.35-5.78,2.21-8.36-1.55-1.87-3.68-1.97-5.91-1.7-3.62.44-6.77.75-10.41.27-5.09-.66-6.56,7.06-2.52,9.32,3.02,1.69,5.68,2.02,9.04,1.24,4.56-1.05,4.97-8.9,0-9.64-4.58-.69.81-9.89,1.16-12.88.56-4.75-1.22-7.85-2.59-12.16-.86-2.69.05-5.47.29-8.18.19-2.15.07-4.3.09-6.46.05-4.54,2.18-7.89,3.54-12.09l-2.3,2.99c3.16-1.47,8.19-1.6,11.61-2.1,6.35-.91,3.65-10.55-2.66-9.64h0Z"/></g><image width="1600" height="900" transform="translate(-448 748) scale(1.25)" xlink:href="Untitled_Artwork 87.png"/><path class="cls-10" d="m1229.22,400.51s21.55,15.51,37.92-25"/><path class="cls-11" d="m1247.75,401.61c-.43,8.85-8.19,23.04-25.43,22.18s-5.17-26.72-5.17-26.72c-8.62-11.2,3.19-43,3.19-43"/><path class="cls-10" d="m1222.33,392.76s5.81.27,8.07-4.17"/><path class="cls-10" d="m1224.91,366.9s-2.59,11.2-5.17,14.65c-1.64,2.18.86,4.31,4.31,3.45"/><path class="cls-10" d="m1241.29,367.76h-3.45s-.86-5.17-5.17-5.17-6.58,4.27-6.31,10.32c.27,6.05,2.86,6.05,5.44,6.05s6.03-1.72,6.03-9.48"/><path class="cls-11" d="m1226.36,366.9h-7.14s-1.21-7.76-6.38-6.03c-5.17,1.72-4.31,10.34-4.31,10.34,0,0,.86,7.76,5.17,6.03"/><path class="cls-4" d="m1230.4,369.48s1.97-3.35,3.41-2.1c1.44,1.24.58,2.97.58,2.97,0,0-1.01,3.8-3.45,2.59-1.72-.86-.54-3.45-.54-3.45Z"/><path class="cls-11" d="m1257.67,393.62c11.89,14.87,23.32,23.35,31.03,27.58,2.09,1.15,5.54,2.9,10.34,6.03,3.45,2.25,14.51,9.45,19.82,16.38,8.37,10.9,6.14,25.85,4.31,37.06-1.87,11.44-6.96,31.23-29.3,61.19-12,16.09-27.13,36.39-52.58,53.44-43.18,28.93-87.97,29.7-114.63,30.17-69.8,1.21-123.53-25.15-150.83-41.37l9.48-33.61c.39,0,.99-.02,1.72,0,6.89.16,11.97,2.22,12.93,2.59,7.66,2.9,40.28,6.25,49.13,6.9,32.39,2.38,64-8.14,83.6-14.65,21.99-7.31,45.88-15.25,71.54-35.34,14.89-11.66,34.52-27.44,43.96-55.16,4.11-12.08,5.05-22.82,5.17-30.17"/><path class="cls-11" d="m1216.29,397.93c-1.73,2.07-5.2,6.09-6.9,8.62,0,0-7.03,10.5-11.2,25-3.7,12.82-6.52,43.77-2.59,84.47"/><path class="cls-11" d="m1193.88,473.77c-30.14-32.17-42.47-59.25-46.54-71.54-.86-2.6-2.55-7.97-4.31-14.65-5.79-21.94-7.84-40.56-8.62-53.44l11.2-6.9c.43-.15,1.15-.34,1.72,0,1.13.67.9,2.96.86,3.45-.15,2.06.82,5.86,9.48,20.69,5.18,8.88,7.77,13.31,11.2,18.1,9.88,13.78,14.59,20.84,22.41,25,3.92,2.08,13.28,4.35,25,3.45"/><path class="cls-11" d="m1257.67,584.1c13.35,38.21,28.6,68.05,40.51,88.78,6.98,12.15,36.12,61.73,88.78,111.18,1.95,1.83,35.77,33.03,75.85,43.09,9.12,2.29,19,3.59,28.44-.86,10.36-4.89,15.46-14.5,22.41-27.58,3.02-5.68,8.14-15.53,10.34-29.3,1.37-8.58-.31-6.73.86-23.27.77-10.91.98-21.85,1.72-32.75.21-3.13.61-8.72-2.59-13.79-.67-1.06-2.83-4.39-6.9-6.03-3.1-1.26-5.91-.96-6.9-.86-11.15,1.07-22.46-1.02-33.61,0-19.28,1.76-65.21-14.29-95.67-46.54-10.33-10.94-21.06-26.05-40.51-53.44-4-5.63-6.03-8.5-7.76-11.2-14.11-22.11-19.93-44.33-22.41-62.06"/><path class="cls-11" d="m1263.7,599.61c-7.82,20.76-16.05,47.72-18.96,64.64-.87,5.04-1.42,8.99-1.72,11.2-1.59,11.47-3.71,30.75-3.45,58.61.26,27.67.44,47,6.9,54.3.71.8,3.58,3.81,3.45,7.76-.14,4.22-3.63,7.3-5.17,8.62-11.73,10.05-29.64,5.65-58.61,7.76-2.37.17-7.97.62-10.34-2.59-1.8-2.43-.79-5.66,0-10.34,1-5.96.42-12.08.86-18.1.98-13.19-2.28-29.12-5.17-54.3-2.74-23.8-4.07-35.99-2.59-49.99,1.79-16.84,5.85-27.98,7.76-32.75,4.32-10.84,10.44-20.92,14.65-26.72"/><line class="cls-11" x1="1199.06" y1="813.36" x2="1199.06" y2="824.91"/><path class="cls-11" d="m1235.26,810.78c-.15,2.64-.26,6.55,0,11.43.09,1.64.13,1.87,0,2.37-1.61,5.89-18.78,10.51-30.17,4.31-4.49-2.45-7.27-6.13-11.2-5.17-2.2.54-2.45,1.97-5.17,4.31-1.94,1.67-3.64,2.52-17.24,6.9-6.7,2.16-8.22,2.57-10.34,4.31-1.57,1.28-5.2,4.25-5.17,8.62.03,4.2,3.43,7.02,4.31,7.76,3.8,3.16,8.47,3.38,10.34,3.45,23.09.79,53.37-.47,60.33,0,.34.02,1.67.12,3.45,0,1.53-.1,5.18-.49,9.48-2.59,2.48-1.21,6.12-2.98,6.03-5.17-.03-.76-.49-1.2-.86-1.72-1.94-2.72-.71-6.4,0-10.34.21-1.17,1.33-7.73,0-14.65-.73-3.78-1.35-7.01-3.45-7.76-2.45-.87-6.28,1.88-9.48,6.9"/><path class="cls-11" d="m1525.72,735.79c7.01,6.6,12.94,8.75,15.51,8.62.4-.02,1.31-.1,2.59,0,0,0,4.25.34,7.76,2.59,4.81,3.08,5.11,12.43,5.17,15.51.55,26.28-4.9,48.44-6.9,61.19-.07.42-.33,2.11-.86,4.31-1.53,6.3-2.38,9.82-5.17,12.93-4.79,5.32-12.11,5.9-13.79,6.03-.65.05-.78.03-3.45,0-8.06-.1-13.86-.02-21.55-.86-4.16-.45-5.21-.78-6.03-1.72-2.68-3.09.09-9.44.86-11.2,3.13-7.17,9.26-11.74,12.07-13.79,4.46-3.25,6.25-3.36,7.76-6.03,1.99-3.54.89-7.92,0-12.07-.72-3.35-1.78-6-2.59-7.76"/><path class="cls-11" d="m1146.48,326.39c-.11-8.73-1.49-15.1-2.59-18.96-.53-1.88-.98-3.12-1.72-5.17-2.44-6.74-3.71-10.13-6.03-11.2-2.1-.97-4.21-.29-7.76.86-2.99.97-7.79,2.52-8.62,6.03-.44,1.86.42,3.52,1.72,6.03,1.93,3.72,3.59,4.07,5.17,7.76.88,2.06,1.62,3.77.86,5.17-.92,1.7-3.05,1.12-5.17,3.45-.57.63-1.69,1.85-1.72,3.45-.03,1.41.79,2.44,4.31,6.03,1.82,1.86,2.72,2.86,4.31,4.31,2.01,1.83,3.8,3.27,5.17,4.31"/><path class="cls-11" d="m984.44,550.48c-4.55-2.11-9.36-5.11-13.79-9.48-.94-.93-1-1.07-1.72-1.72-4.6-4.18-8.64-4.47-16.38-6.9-8.17-2.56-11.42-4.65-18.1-6.03-2.53-.52-4.39-.71-6.03-.86-3.61-.34-5.41-.51-6.9,0-3.52,1.22-5.37,4.77-6.03,6.03-2.05,3.94-1.3,6.72-3.45,7.76-.54.26-.95.26-3.45,0-6.12-.64-6.45-.94-7.76-.86-3.91.22-6.72,3.21-7.76,4.31-1.14,1.21-2.76,3.35-4.31,10.34-.73,3.28-2.34,11.67-.86,23.27.79,6.23,1.75,7.7,2.59,8.62,2.74,3.02,6.47,2.73,12.93,3.45.49.05,8.08,1.76,23.27,5.17,12.18,2.74,13.36,3.23,16.38,2.59,2.02-.43,3.74-1.13,13.79-6.9,4.49-2.57,6.19-4.53,10.34-6.03,3.48-1.26,6.57-1.62,8.62-1.72"/><line class="cls-10" x1="890.5" y1="550.48" x2="924.11" y2="552.21"/><line class="cls-10" x1="888.77" y1="559.96" x2="924.11" y2="563.92"/><line class="cls-10" x1="888.77" y1="572.3" x2="934.45" y2="579.79"/><polyline class="cls-3" points="895.67 540.14 853.25 539.28 848.26 519.45 831.03 516.87 822.41 577.2 838.9 579.79 851.71 562.55 887.05 574.62"/><path class="cls-3" d="m1625.7,207.45c-2.38-.28,4.48-5.36-6.03,0-5.09,2.6-7-2.11-15.51,5.17-14.48,12.37-23.27,25-43.96,31.89-33.92,11.31-47.4-15.51-65.5-4.31-8.68,5.37-12.33,11.03-19.82,21.55-11.02,15.47-29.78,41.81-56.02,48.27-3.94.97-24.48,5.54-37.92-5.17-3.7-2.95-3.51-4.39-16.38-20.69-11.66-14.77-13.97-16.33-15.51-17.24-8.52-5.03-20.19-5.78-30.17-2.59-21.55,6.9-15.51,30.17-39.65,32.75-16.62,1.78-23.26-3.49-37.92,1.72-15.89,5.65-22.23,23.98-25.86,34.48-1.16,3.36-2.19,7.5-.86,12.07.27.94,2.38,7.87,7.76,9.48,3.98,1.19,9.54-.6,10.34-.86,2.25-.72,3.83-1.62,5.17-.86,1.33.75,1.48,2.6,1.72,4.31,0,0,.82,5.75,4.31,13.79,2.1,4.83,4.11,6.83,5.17,7.76,1.38,1.2,3.66,3.2,6.03,2.59,2.03-.52,3.08-2.69,3.45-3.45.64-1.33.73-2.92.86-6.03.16-3.62-.07-4.72.86-6.03.22-.31,1.1-1.55,2.59-1.72,1.92-.23,3.28,1.51,3.45,1.72.24.32.66,1.01.86,3.45.18,2.17-.05,2.91,0,4.31.09,2.87,1.21,5.03,1.72,6.03.56,1.08,1.89,3.67,4.31,5.17,4.6,2.86,10.78.35,13.79-.86,1.35-.54,4.34-2.37,10.34-6.03,4.73-2.89,4.96-3.11,6.03-3.45,6.12-1.9,12.08,1.26,12.93,1.72,5.57,3.06,7.89,8.26,10.34,13.79,2.99,6.74,1.8,7.97,4.31,13.79,1.6,3.72,4.82,11.18,12.07,15.51,8.3,4.97,19.84,4.62,27.58,0,4.68-2.79,4.83-5.27,12.93-10.34,5.71-3.58,8.95-4.42,12.07-4.31,1.45.05,6.01.22,8.62,3.45,1.77,2.2,1.78,4.74,1.72,9.48-.09,7.35-1.93,8.42-.86,12.93.3,1.25,1.19,5,4.31,7.76,2.38,2.1,3.83,1.65,5.17,3.45,1.98,2.66.73,6.2,0,10.34,0,0-.39,2.25,0,15.51.31,10.31,12.32,28.48,30.17,41.37,34.34,24.82,77.01,20.5,92.22,18.96,8.21-.83,53.29-5.39,87.05-33.61,94.16-78.71,31.1-283.58,1.72-287.01Z"/></svg>